<?xml version="1.0" encoding="UTF-8"?><svg id="Layer_1" xmlns="http://www.w3.org/2000/svg" viewBox="0 0 500 91.8"><defs><style>.cls-1{fill:#8901e8;}.cls-1,.cls-2{stroke-width:0px;}.cls-2{fill:#151218;}</style></defs><path class="cls-1" d="m34,.03C24.49-.34,14.88,3.09,8.29,9.21,2.87,14.26,0,20.64,0,27.66c.01,1.87.25,3.74.72,5.55.04.15.08.29.12.43.01.05.02.09.04.14.07.26.17.58.25.84,2.24-4.46,4.64-7.03,6.05-8.25.01-.15.02-.26.04-.46.02-.26.06-.52.09-.78l.03-.23c.03-.21.07-.41.11-.61.89-4.65,3.51-7.98,5.78-10.09,5.13-4.78,12.96-7.55,20.48-7.27,16.04.63,27.47,11.96,27.47,27.57,0,14.22-11.25,25.53-27.04,27.49-4.74.59-8.54.24-11.88-.07-1.46-.14-2.89-.27-4.31-.31-6.5-.14-10.45,2.43-10.45,2.43-2.28,1.31-4.16,3.18-5.47,5.41C.7,71.68,0,74.21,0,76.77c0,2.12.45,4.21,1.34,6.14.89,1.93,2.19,3.66,3.82,5.07,1.63,1.41,3.55,2.47,5.63,3.11,2.08.64,4.28.85,6.45.6,2.17-.24,4.26-.93,6.14-2.01,1.88-1.08,3.5-2.54,4.75-4.27,1.25-1.73,2.12-3.7,2.53-5.78.41-2.08.37-4.22-.13-6.28-.02-.09-.05-.19-.07-.28-.02-.06-.03-.13-.05-.19-.03-.12-.07-.24-.11-.36-1.75.06-3.49,0-5.23-.2-1.1-.13-2.02-.24-2.81-.32l.12.19h.01s.01.03.01.03c.15.22.28.44.4.66.09.16.17.32.24.48.5,1.07.76,2.23.77,3.4.05,1.07-.11,2.14-.49,3.15-.38,1.01-.95,1.93-1.7,2.72-.75.79-1.65,1.43-2.65,1.87-1,.45-2.09.7-3.19.74-1.1.04-2.2-.14-3.24-.51-1.03-.38-1.98-.95-2.78-1.68-.8-.73-1.45-1.62-1.9-2.59-.45-.98-.7-2.03-.72-3.1v-.59c0-1.59.5-3.14,1.42-4.45.92-1.31,2.22-2.33,3.74-2.92,0,0,1.55-.82,4.31-.93,1.47-.07,2.62-.12,8.12.55,4.78.58,10.5-.17,11.66-.34h.08s.09-.03.09-.03h.04c18.61-2.99,31.69-16.82,31.69-34.15C68.29,15,54.06.82,34,.03Zm10.99,31.07c-1.42-6.2-8.04-11.99-19.21-10.07-8.01,1.37-14.18,5.77-18.18,10.39-2.81,3.22-4.65,7.38-4.65,7.38C1,42.91-.12,46.61.01,51.11c.12,3.72,1.2,6.66,3.04,9.02.48.6,1.01,1.16,1.59,1.67.34-.24.7-.46,1.06-.68,0,0,2.33-1.51,6.34-2.15-.56-.28-1.35-.94-1.52-1.08-.38-.31-.74-.65-1.07-1.01-1.48-1.6-2.24-3.56-2.32-5.98-.06-2.13.29-4.25,1.03-6.25,0,0,1.15-3.42,3.12-6.46,2.95-4.52,8.61-9.14,15.73-10.36.1-.02,9.57-1.56,11.01,4.76.41,1.78-.1,3.73-1.4,5.36-2.13,2.67-6.15,4.24-11.31,4.42-2.92.1-6.61-.39-9.76-1.62-.21-.08-.84-.38-1.03-.48-2.13,2.44-3.07,6.25-3.08,6.26,0,.01,0,.02,0,.02.17.09.83.34.83.34,4.52,1.9,9.61,2.51,13.29,2.38,7.31-.25,13.24-2.77,16.69-7.1,2.59-3.25,3.58-7.29,2.72-11.08Z"/><path class="cls-2" d="m92.53,76.28V30.26h6.22l.44,4.31.37-.54c1.9-2.77,5.96-4.56,10.34-4.56,8.8,0,15.19,6.89,15.19,16.38s-6.39,16.44-15.19,16.44c-4.21,0-8.27-1.79-10.1-4.46l-.43-.63v19.08h-6.84Zm16.07-41.03c-5.18,0-9.24,3.62-9.24,8.23v4.75c0,4.62,4.06,8.23,9.24,8.23,5.78,0,9.51-4.16,9.51-10.61s-3.73-10.6-9.51-10.6Z"/><path class="cls-2" d="m133.83,61.5v-31.24h6.16l.5,5.01.37-.71c1.59-3.07,4.81-4.9,8.64-4.9,1.09-.01,2.18.17,3.2.53h.01v5.9h-.02c-.95-.13-1.9-.19-2.86-.2-6.08,0-9.17,3.3-9.17,9.81v15.79h-6.85Z"/><path class="cls-2" d="m173.95,62.29c-9.67,0-16.69-6.92-16.69-16.44s7.02-16.38,16.69-16.38,16.69,6.89,16.69,16.38-7.02,16.44-16.69,16.44Zm0-27.05c-5.72,0-9.71,4.36-9.71,10.61s3.9,10.68,9.71,10.68,9.71-4.29,9.71-10.68-3.99-10.6-9.71-10.6h0Z"/><path class="cls-2" d="m214.06,77.07c-8.19,0-14.22-3.97-15.73-10.37v-.02l6.43-1.66h0c1.35,4.09,4.68,6.34,9.37,6.34,6.03,0,9.79-3.73,9.79-9.75v-5.01l-.43.59c-1.99,2.74-5.99,4.45-10.44,4.45-8.76,0-15.12-6.75-15.12-16.05s6.5-16.12,15.12-16.12c4.45,0,8.56,1.79,10.49,4.56l.37.53.43-4.3h6.16v31.15c-.01,9.66-6.3,15.65-16.43,15.65Zm.34-41.82c-5.59,0-9.51,4.25-9.51,10.34s3.91,10.34,9.51,10.34c5.18,0,9.24-3.59,9.24-8.16v-4.36c0-4.58-4.06-8.16-9.24-8.16Z"/><path class="cls-2" d="m253.92,62.29c-8.8,0-15.19-6.92-15.19-16.44s6.39-16.38,15.19-16.38c4.42,0,8.51,1.79,10.41,4.56l.37.54.43-4.3h6.16v31.24h-6.16l-.43-4.3-.37.54c-1.9,2.77-5.99,4.56-10.41,4.56Zm1.29-27.04c-5.69,0-9.51,4.26-9.51,10.61s3.73,10.61,9.51,10.61c5.27,0,9.24-3.54,9.24-8.23v-4.75c0-4.63-4.06-8.24-9.24-8.24Z"/><path class="cls-2" d="m297.43,62.29c-7.92,0-11.45-3.65-11.45-11.83v-14.5h-5.65v-5.71h5.65v-7.78h6.84v7.78h8.85v5.71h-8.85v14.3c0,4.72,1.54,6.32,6.11,6.32,1,0,2.01-.08,2.99-.26h.02v5.51h-.01c-1.47.33-2.98.48-4.49.46Z"/><path class="cls-2" d="m324.91,62.29c-9.74,0-16.55-6.68-16.55-16.25s7.02-16.58,16.69-16.58,15.39,6.16,15.39,15.32c0,.88-.07,1.77-.2,2.64v.02h-24.97l.03.25c.6,5.61,4.25,8.95,9.76,8.95,3.86,0,6.8-1.66,8.49-4.81h0s6.16,1.58,6.16,1.58v.02c-2.15,5.46-7.82,8.85-14.78,8.85Zm.14-27.38c-4.86,0-8.3,2.7-9.44,7.4l-.07.28h18.06l-.04-.26c-.78-4.79-3.8-7.42-8.51-7.42h0Z"/><path class="cls-1" d="m397.21,45.85c0,9.7-6.6,16.44-15.18,16.44-4.36,0-8.51-1.85-10.28-4.75h-.27v18.74h-6.81V30.27h6.2l.41,4.09h.2c1.77-2.9,5.92-4.89,10.55-4.89,8.65,0,15.19,6.67,15.19,16.38Zm-6.94,0c0-6.61-3.95-10.63-9.53-10.63-5.24,0-9.26,3.7-9.26,8.25v4.75c0,4.62,4.02,8.25,9.26,8.25,5.58,0,9.53-3.96,9.53-10.63h0Z"/><path class="cls-1" d="m428.97,30.23l-.41,4.1h-.2c-1.77-2.91-5.93-4.89-10.63-4.89-8.51,0-15.19,6.67-15.19,16.38s6.68,16.44,15.19,16.44c4.7,0,8.85-1.98,10.63-4.89h.2l.41,4.09h6.13v-31.24h-6.13Zm-.68,17.96c0,4.62-3.95,8.26-9.26,8.26s-9.54-3.96-9.54-10.63,4.02-10.63,9.54-10.63,9.26,3.7,9.26,8.26v4.76Z"/><path class="cls-1" d="m463.27,56.33v5.48c-1.47.33-2.98.48-4.5.46-7.69,0-11.44-3.37-11.44-11.82v-14.53h-5.65v-5.68h5.65v-7.8h6.82v7.8h8.86v5.68h-8.86v14.33c0,4.89,1.7,6.34,6.13,6.34,1,0,2-.08,2.99-.26h0Z"/><path class="cls-1" d="m500,41.8v19.68h-6.81v-17.37c0-6.41-2.45-8.78-6.82-8.78-4.97,0-8.24,3.04-8.24,9.18v16.97h-6.82V15.24h6.82v19.02h.27c2.11-3.04,5.66-4.82,10.08-4.82,7.02,0,11.52,4.43,11.52,12.35Z"/></svg>